<svg id="Layer_1" data-name="Layer 1" xmlns="http://www.w3.org/2000/svg" viewBox="0 0 263.04 170.74"><defs><style>.cls-1,.cls-2{fill:#fff;}.cls-2{font-size:28.16px;font-family:TwCenMT-Bold, Tw Cen MT;font-weight:700;}</style></defs><path class="cls-1" d="M182.5,134.18,174.45,143q-6.34-3.75-9.14-3.75a5,5,0,0,0-3.71,1.62,5.41,5.41,0,0,0-1.55,3.86q0,4.44,8,7.69A54.91,54.91,0,0,1,177,157a16.29,16.29,0,0,1,5.06,5.65,15.7,15.7,0,0,1,2,7.82,17.68,17.68,0,0,1-6.24,13.44,21.13,21.13,0,0,1-14.75,5.72q-9.33,0-18.43-8.78l8.51-9.93q5.72,5.91,10.7,5.9a6.45,6.45,0,0,0,4.48-2.07,6.1,6.1,0,0,0,2.15-4.36q0-4.69-9.92-8.28a32.36,32.36,0,0,1-8-3.88,13.65,13.65,0,0,1-4-5.26,16.43,16.43,0,0,1-1.62-7.06,17.15,17.15,0,0,1,5.21-13q5.21-5,13.63-5A23.72,23.72,0,0,1,182.5,134.18Z" transform="translate(-144.68 -45.43)"/><path class="cls-1" d="M355.86,128.74H368.8V154.1H369l19.87-25.36h15.89l-22.81,28.67,23.77,31.37H390.14L369,160.68h-.18v28.1H355.86Z" transform="translate(-144.68 -45.43)"/><polygon class="cls-1" points="146.94 143.42 133.98 143.42 117.67 97.78 101.36 143.42 88.4 143.42 117.67 61.96 146.94 143.42"/><polygon class="cls-1" points="109.25 130.89 118.06 112.86 119.82 126.15 125.52 125.6 117.26 143.63 115.48 130.35 109.25 130.89"/><path class="cls-1" d="M232.71,146a20.43,20.43,0,0,1-2.49,9.81,15.66,15.66,0,0,1-7.53,6.93,23,23,0,0,1-8.59,2.37l-2.63.07-4.32-10.54h4.29a7.92,7.92,0,0,0,7.87-7.86,6.74,6.74,0,0,0-2.61-5.67q-2.59-2-7.4-2l-2.89.18v15.36l.19,10.66v23.23H193.75v-60h20.53q8.28,0,13.35,4.82T232.71,146Z" transform="translate(-144.68 -45.43)"/><text class="cls-2" transform="translate(133.95 164.18) scale(0.93 1)">SOLUTIONS</text><polygon class="cls-1" points="62.58 26.86 67.3 25.29 98.53 73.93 62.58 26.86"/><polygon class="cls-1" points="167.27 19.4 163.14 18.41 137.64 72.54 167.27 19.4"/><polygon class="cls-1" points="112.85 0 117.67 1.25 117.5 59.05 112.85 0"/><polygon class="cls-1" points="60.63 55.24 64.34 53.03 97.16 77.36 60.63 55.24"/><polygon class="cls-1" points="89.05 25.07 93.36 25.2 108.01 63.33 89.05 25.07"/><polygon class="cls-1" points="101 19.04 97.77 21.89 110.96 60.56 101 19.04"/><polygon class="cls-1" points="78.28 32.93 82.6 32.89 98.65 70.46 78.28 32.93"/><polygon class="cls-1" points="90.83 34.63 87.92 37.67 103.39 67.41 90.83 34.63"/><polygon class="cls-1" points="110.89 23.15 107.26 25.28 113.94 58.13 110.89 23.15"/><polygon class="cls-1" points="143.26 22.35 138.96 22.75 126.72 61.72 143.26 22.35"/><polygon class="cls-1" points="130.95 17.07 134.35 19.73 123.6 59.14 130.95 17.07"/><polygon class="cls-1" points="154.49 29.52 150.18 29.75 136.5 68.25 154.49 29.52"/><polygon class="cls-1" points="142.07 32 145.16 34.86 131.58 65.51 142.07 32"/><polygon class="cls-1" points="121.39 22.8 125.15 24.7 120.54 57.9 121.39 22.8"/><polygon class="cls-1" points="64.5 44.67 68.87 42.89 92.07 70.36 64.5 44.67"/><polygon class="cls-1" points="173.13 50.55 169.26 48.64 138.46 75.48 173.13 50.55"/><polygon class="cls-1" points="169.44 39.32 164.94 37.89 143.99 67.11 169.44 39.32"/><path class="cls-1" d="M348,188.78H334.27L312.53,156h3.72a23.94,23.94,0,0,0,4.68-.39,6.51,6.51,0,0,0,3.27-1.63,7,7,0,0,0,1.89-2.7,11.47,11.47,0,0,0,.62-4.11,9.17,9.17,0,0,0-.76-3.9,5.27,5.27,0,0,0-2.53-2.51,8.12,8.12,0,0,0-2.75-.77,36.42,36.42,0,0,0-3.79-.16h-4.42v49H299.3v-60h21.18a40.68,40.68,0,0,1,7.64.63,14.91,14.91,0,0,1,10.5,7.82,17.16,17.16,0,0,1,1.67,8q0,6.9-2.73,11.19a20,20,0,0,1-7.28,6.84Z" transform="translate(-144.68 -45.43)"/></svg>